<svg width="200" height="152" viewBox="0 0 200 152" fill="none" xmlns="http://www.w3.org/2000/svg">
<g clip-path="url(#clip0_419_688)">
<path d="M150.517 36.4671H149.689V13.7869C149.689 10.3055 148.306 6.96662 145.844 4.50489C143.382 2.04315 140.044 0.660161 136.562 0.660156H88.511C86.7872 0.660152 85.0802 0.99968 83.4876 1.65935C81.895 2.31903 80.4479 3.28593 79.229 4.50486C78.0101 5.72378 77.0432 7.17085 76.3835 8.76346C75.7238 10.3561 75.3843 12.063 75.3843 13.7868V138.212C75.3843 139.936 75.7238 141.643 76.3835 143.236C77.0432 144.828 78.0101 146.275 79.229 147.494C80.4479 148.713 81.895 149.68 83.4876 150.34C85.0802 151 86.7872 151.339 88.511 151.339H136.562C140.044 151.339 143.382 149.956 145.844 147.494C148.306 145.033 149.689 141.694 149.689 138.212V52.6113H150.517L150.517 36.4671Z" fill="#3F3D56"/>
<path d="M137.092 4.07422H130.82C131.108 4.78139 131.218 5.54865 131.14 6.3084C131.062 7.06815 130.799 7.79708 130.373 8.43096C129.947 9.06485 129.371 9.58425 128.697 9.9434C128.023 10.3026 127.271 10.4904 126.507 10.4905H98.9796C98.2159 10.4904 97.4638 10.3026 96.7898 9.94341C96.1158 9.58426 95.5404 9.06486 95.1144 8.43097C94.6884 7.79708 94.4249 7.06816 94.3469 6.3084C94.269 5.54865 94.3791 4.78139 94.6675 4.07422H88.8092C86.2094 4.07422 83.7159 5.10702 81.8776 6.94541C80.0392 8.7838 79.0064 11.2772 79.0063 13.8771V138.12C79.0063 139.407 79.2599 140.682 79.7525 141.871C80.2452 143.061 80.9673 144.141 81.8775 145.052C82.7878 145.962 83.8685 146.684 85.0578 147.177C86.2472 147.669 87.5219 147.923 88.8092 147.923H137.092C138.379 147.923 139.654 147.669 140.843 147.177C142.033 146.684 143.113 145.962 144.023 145.052C144.934 144.141 145.656 143.061 146.148 141.871C146.641 140.682 146.895 139.407 146.895 138.12V13.8771C146.895 12.5897 146.641 11.315 146.148 10.1257C145.656 8.93634 144.934 7.85568 144.023 6.9454C143.113 6.03512 142.033 5.31305 140.843 4.82041C139.654 4.32777 138.379 4.07422 137.092 4.07422Z" fill="white"/>
<path d="M122.952 57.9493C127.754 57.9493 131.648 57.5785 131.648 57.1211C131.648 56.6637 127.754 56.293 122.952 56.293C118.15 56.293 114.256 56.6637 114.256 57.1211C114.256 57.5785 118.15 57.9493 122.952 57.9493Z" fill="#E6E6E6"/>
<path d="M200 21.3359H119.948V47.6157H122.98V54.489L129.853 47.6157H200V21.3359Z" fill="#0684CB"/>
<path d="M165.259 30.2344H128.857V31.3391H165.259V30.2344Z" fill="white"/>
<path d="M192.303 34.0586H128.857V35.1633H192.303V34.0586Z" fill="white"/>
<path d="M192.241 37.8789H128.857V38.9836H192.241V37.8789Z" fill="white"/>
<path d="M179.549 100.602H115.648V121.579H118.069V127.065L123.555 121.579H179.549V100.602Z" fill="#0684CB"/>
<path d="M151.817 107.703H122.76V108.585H151.817V107.703Z" fill="white"/>
<path d="M173.405 110.754H122.76V111.636H173.405V110.754Z" fill="white"/>
<path d="M173.355 113.805H122.76V114.687H173.355V113.805Z" fill="white"/>
<path d="M118.047 129.826C121.88 129.826 124.988 129.53 124.988 129.165C124.988 128.8 121.88 128.504 118.047 128.504C114.213 128.504 111.105 128.8 111.105 129.165C111.105 129.53 114.213 129.826 118.047 129.826Z" fill="#E6E6E6"/>
<path d="M98.9354 88.5899C103.738 88.5899 107.631 88.2191 107.631 87.7618C107.631 87.3044 103.738 86.9336 98.9354 86.9336C94.1329 86.9336 90.2397 87.3044 90.2397 87.7618C90.2397 88.2191 94.1329 88.5899 98.9354 88.5899Z" fill="#E6E6E6"/>
<path d="M45.6387 62.543H101.934V81.024H99.8017V85.8573L94.9684 81.024H45.6387V62.543Z" fill="#0684CB"/>
<path d="M77.077 68.6602H51.478V69.437H77.077V68.6602Z" fill="white"/>
<path d="M96.095 71.3477H51.478V72.1245H96.095V71.3477Z" fill="white"/>
<path d="M96.0513 74.0352H51.478V74.812H96.0513V74.0352Z" fill="white"/>
<path d="M18.216 107.623C18.4859 108.088 18.9294 108.426 19.449 108.564C19.9685 108.702 20.5215 108.628 20.9863 108.358C21.4511 108.088 21.7896 107.644 21.9274 107.125C22.0652 106.605 21.9909 106.052 21.721 105.588C21.6644 105.493 21.6005 105.402 21.5301 105.317L23.235 93.1658L23.286 92.8017L23.6323 90.3222L23.6834 89.9648L23.4947 89.9737L20.1917 90.1247L19.3059 90.1646L19.1949 92.4266L18.5667 105.144C18.2385 105.458 18.0255 105.873 17.9618 106.323C17.8982 106.772 17.9877 107.23 18.216 107.623Z" fill="#A0616A"/>
<path d="M23.2766 92.9127L19.0824 92.528C18.8649 92.5074 18.6643 92.4016 18.5244 92.2337C18.3845 92.0659 18.3167 91.8495 18.3357 91.6318L19.1136 82.9099C19.1513 82.4863 19.2736 82.0745 19.4732 81.699C19.6729 81.3234 19.9458 80.9918 20.2759 80.7236C20.606 80.4554 20.9866 80.2562 21.395 80.1377C21.8035 80.0192 22.2316 79.9838 22.6539 80.0336C23.0763 80.0835 23.4844 80.2176 23.854 80.4279C24.2237 80.6383 24.5473 80.9207 24.8059 81.2583C25.0645 81.596 25.2527 81.9821 25.3595 82.3938C25.4662 82.8055 25.4892 83.2344 25.4273 83.6552L24.1697 92.2102C24.1408 92.4062 24.0424 92.5853 23.8926 92.7149C23.7427 92.8445 23.5512 92.9159 23.3531 92.9162C23.3278 92.9162 23.3022 92.9151 23.2766 92.9127Z" fill="#CCCCCC"/>
<path d="M20.0978 85.8665C19.6736 84.6649 19.654 83.3576 20.0418 82.1438C20.4297 80.9299 21.2039 79.8763 22.2463 79.1433C23.8278 78.0612 25.9921 77.6727 28.3229 80.4474C32.9844 85.9969 34.2053 92.1013 34.2053 92.1013L24.6603 93.6551C24.6603 93.6551 21.4139 89.6873 20.0978 85.8665Z" fill="#CCCCCC"/>
<path d="M35.5351 148.376H38.2564L39.551 137.879L35.5347 137.879L35.5351 148.376Z" fill="#A0616A"/>
<path d="M43.5054 150.902L34.9524 150.903L34.9523 147.598L40.8661 147.598C41.2126 147.598 41.5558 147.666 41.876 147.799C42.1962 147.931 42.4872 148.126 42.7323 148.371C42.9773 148.616 43.1718 148.907 43.3044 149.227C43.437 149.547 43.5053 149.89 43.5053 150.237L43.5054 150.902Z" fill="#2F2E41"/>
<path d="M13.1611 146.002L15.745 146.856L20.2688 137.296L16.4553 136.035L13.1611 146.002Z" fill="#A0616A"/>
<path d="M19.9355 150.902L11.8147 148.218L12.8518 145.081L18.4668 146.936C18.7959 147.045 19.1003 147.218 19.3627 147.444C19.6251 147.671 19.8403 147.946 19.9961 148.256C20.1519 148.566 20.2451 148.903 20.2706 149.249C20.296 149.594 20.2531 149.942 20.1444 150.271L19.9355 150.902Z" fill="#2F2E41"/>
<path d="M28.704 75.7222C31.3461 74.2779 32.3171 70.9653 30.8728 68.3232C29.4285 65.6811 26.1159 64.7101 23.4738 66.1544C20.8318 67.5987 19.8608 70.9113 21.305 73.5534C22.7493 76.1955 26.062 77.1665 28.704 75.7222Z" fill="#A0616A"/>
<path d="M30.8626 145.453L28.3352 128.772C28.3083 128.594 28.2203 128.431 28.0864 128.311C27.9525 128.191 27.7809 128.12 27.601 128.113C27.4211 128.105 27.2441 128.16 27.1002 128.268C26.9563 128.376 26.8544 128.531 26.812 128.706L22.9634 144.602C22.9028 144.846 22.7533 145.058 22.5444 145.197C22.3354 145.336 22.082 145.392 21.834 145.354L11.2179 143.647C11.0772 143.625 10.9429 143.572 10.8241 143.493C10.7053 143.415 10.6047 143.311 10.5292 143.19C10.4537 143.069 10.4049 142.934 10.3861 142.792C10.3674 142.651 10.3791 142.507 10.4205 142.371L24.2632 96.7334C24.3025 96.6035 24.3072 96.4656 24.2767 96.3334L23.8158 94.3363C23.7652 94.1197 23.7885 93.8925 23.8821 93.6908C23.9758 93.4891 24.1342 93.3245 24.3323 93.2234C26.2172 92.2615 30.9905 90.262 34.5946 92.4523C34.7115 92.5236 34.8128 92.618 34.8921 92.7297C34.9715 92.8414 35.0273 92.968 35.0561 93.102L45.87 143.927C45.8994 144.065 45.8992 144.208 45.8693 144.346C45.8394 144.484 45.7806 144.615 45.6967 144.728C45.6127 144.842 45.5057 144.937 45.3825 145.006C45.2593 145.075 45.1228 145.117 44.9821 145.13L31.9394 146.298C31.9093 146.301 31.8794 146.302 31.8498 146.302C31.611 146.302 31.3803 146.216 31.1992 146.06C31.0182 145.904 30.8988 145.689 30.8626 145.453Z" fill="#2F2E41"/>
<path d="M22.4738 67.0845C22.8848 66.8373 23.2495 66.5203 23.5516 66.1478C23.7005 65.9596 23.7986 65.7363 23.8363 65.4992C23.874 65.2622 23.85 65.0195 23.7668 64.7943C23.4914 64.1867 22.6728 63.9942 22.0386 64.2014C21.4044 64.4085 20.9144 64.9054 20.4509 65.3853C20.0425 65.808 19.6226 66.2492 19.4289 66.804C19.2352 67.3589 19.3347 68.0623 19.8165 68.3989C20.2892 68.7293 20.9689 68.5941 21.4236 68.2393C21.8783 67.8845 22.1597 67.358 22.4281 66.8475L22.4738 67.0845Z" fill="#2F2E41"/>
<path d="M20.6275 65.5319C20.5972 63.9957 18.8462 62.8942 17.334 63.1664C15.8219 63.4386 14.6595 64.728 14.0776 66.15C12.8483 69.1546 13.7712 72.5828 14.9557 75.6053C16.1402 78.6279 17.606 81.6962 17.4332 84.9379C17.3165 86.6902 16.7286 88.3785 15.7316 89.8243C14.7347 91.2701 13.3658 92.4199 11.7695 93.1521C13.4762 93.9256 15.5161 93.1265 16.9502 91.9205C20.1352 89.2423 21.3646 84.4742 19.8717 80.5898C19.1353 78.674 17.8377 77.035 16.8246 75.2499C15.8115 73.4649 15.0682 71.3613 15.5912 69.3766C16.1143 67.3919 18.3402 65.7844 20.2433 66.5532L20.6275 65.5319Z" fill="#2F2E41"/>
<path d="M26.4159 73.3571C25.9407 72.5539 25.4608 71.4995 26.3298 70.7975C26.5187 70.6518 26.7348 70.5453 26.9654 70.4843C27.1961 70.4233 27.4366 70.4091 27.6728 70.4424C28.6523 70.5604 29.7188 70.6091 30.6668 70.2533C31.0223 70.1309 31.3496 69.9384 31.6293 69.687C31.909 69.4357 32.1353 69.1308 32.2949 68.7903C32.7843 67.6307 32.1714 66.2216 31.1483 65.4886C30.5224 65.0565 29.7828 64.8187 29.0223 64.8053C28.2618 64.7918 27.5143 65.0033 26.8735 65.413C25.5484 64.8278 23.9405 65.088 22.7366 65.8937C21.5327 66.6994 20.7089 67.9898 20.2614 69.3675C19.8491 70.5535 19.7782 71.8313 20.0565 73.0556C20.2805 73.9073 20.7065 74.6925 21.2983 75.3447C21.8902 75.9969 22.6305 76.4969 23.4565 76.8023C23.7783 76.9291 24.1278 76.9692 24.4699 76.9184C24.8121 76.8676 25.1349 76.7279 25.406 76.5131C25.406 76.5131 26.1574 75.8571 26.3925 75.0671C26.5731 74.4602 26.6698 73.7862 26.4159 73.3571Z" fill="#2F2E41"/>
<path d="M42.5897 78.2238C42.5625 78.3436 42.5447 78.4653 42.5366 78.5879L33.001 84.0889L30.6833 82.7546L28.2124 85.9894L32.086 88.7502C32.3989 88.9732 32.7758 89.0888 33.1599 89.0794C33.5441 89.07 33.9149 88.9363 34.2166 88.6983L44.0494 80.9411C44.4931 81.1054 44.9764 81.1306 45.4349 81.0136C45.8933 80.8965 46.3053 80.6426 46.6159 80.2857C46.9266 79.9287 47.1212 79.4857 47.1739 79.0155C47.2266 78.5452 47.1349 78.0701 46.911 77.6532C46.6871 77.2364 46.3416 76.8976 45.9204 76.6819C45.4992 76.4662 45.0224 76.3839 44.5533 76.4458C44.0842 76.5078 43.645 76.7111 43.2943 77.0287C42.9435 77.3463 42.6978 77.7631 42.5897 78.2238Z" fill="#A0616A"/>
<path d="M32.6821 84.3469L29.6003 88.3412C29.5126 88.4548 29.4014 88.5482 29.2744 88.615C29.1473 88.6818 29.0074 88.7205 28.864 88.7283C28.7207 88.7362 28.5774 88.7131 28.4438 88.6605C28.3102 88.608 28.1895 88.5273 28.0899 88.4239L24.6011 84.8009C24.022 84.349 23.6458 83.686 23.555 82.9571C23.4642 82.2282 23.6661 81.4931 24.1165 80.9129C24.5669 80.3327 25.229 79.9548 25.9576 79.8621C26.6862 79.7693 27.4219 79.9693 28.0032 80.4182L32.3791 82.865C32.5043 82.9351 32.613 83.0314 32.6977 83.1473C32.7824 83.2631 32.8412 83.3959 32.8699 83.5366C32.8987 83.6772 32.8968 83.8224 32.8644 83.9622C32.832 84.102 32.7698 84.2333 32.6821 84.3469Z" fill="#CCCCCC"/>
<path d="M64.0318 151.339H0.259239C0.190484 151.339 0.124546 151.311 0.0759292 151.263C0.0273125 151.214 0 151.148 0 151.08C0 151.011 0.0273125 150.945 0.0759292 150.896C0.124546 150.848 0.190484 150.82 0.259239 150.82H64.0318C64.1005 150.82 64.1665 150.848 64.2151 150.896C64.2637 150.945 64.291 151.011 64.291 151.08C64.291 151.148 64.2637 151.214 64.2151 151.263C64.1665 151.311 64.1005 151.339 64.0318 151.339Z" fill="#CCCCCC"/>
</g>
<defs>
<clipPath id="clip0_419_688">
<rect width="200" height="150.679" fill="white" transform="translate(0 0.660156)"/>
</clipPath>
</defs>
</svg>
