<svg width="25" height="26" viewBox="0 0 25 26" fill="none" xmlns="http://www.w3.org/2000/svg">
<path fill-rule="evenodd" clip-rule="evenodd" d="M12.3445 17.9379C13.957 17.9379 15.3288 18.9685 15.8372 20.4069L23.4546 20.4068C24.1364 20.4068 24.6891 20.9595 24.6891 21.6413C24.6891 22.323 24.1364 22.8757 23.4546 22.8757L15.8368 22.8768C15.3281 24.3146 13.9566 25.3446 12.3445 25.3446C10.7325 25.3446 9.36099 24.3146 8.85228 22.8768L1.23443 22.8757C0.552661 22.8757 -2.36034e-05 22.323 -2.36034e-05 21.6413C-2.36034e-05 20.9595 0.552661 20.4068 1.23443 20.4068L8.85185 20.4069C9.36021 18.9685 10.732 17.9379 12.3445 17.9379ZM12.3445 20.4068C11.6628 20.4068 11.1101 20.9595 11.1101 21.6413C11.1101 22.323 11.6628 22.8757 12.3445 22.8757C13.0263 22.8757 13.579 22.323 13.579 21.6413C13.579 20.9595 13.0263 20.4068 12.3445 20.4068ZM20.9857 9.29671C23.031 9.29671 24.6891 10.9548 24.6891 13.0001C24.6891 15.0454 23.031 16.7034 20.9857 16.7034C19.3737 16.7034 18.0022 15.6734 17.4935 14.2356L1.23443 14.2345C0.552661 14.2345 -2.36034e-05 13.6818 -2.36034e-05 13.0001C-2.36034e-05 12.3183 0.552661 11.7656 1.23443 11.7656L17.493 11.7657C18.0014 10.3273 19.3732 9.29671 20.9857 9.29671ZM20.9857 11.7656C20.3039 11.7656 19.7513 12.3183 19.7513 13.0001C19.7513 13.6818 20.3039 14.2345 20.9857 14.2345C21.6675 14.2345 22.2202 13.6818 22.2202 13.0001C22.2202 12.3183 21.6675 11.7656 20.9857 11.7656ZM3.70336 0.655518C5.32272 0.655518 6.69932 1.69487 7.20247 3.14289C7.26845 3.13022 7.33691 3.12443 7.40673 3.12443L23.4546 3.12443C24.1364 3.12443 24.6891 3.67711 24.6891 4.35888C24.6891 5.04065 24.1364 5.59334 23.4546 5.59334L7.40673 5.59334C7.33691 5.59334 7.26845 5.58754 7.2018 5.57641C6.69932 7.02289 5.32272 8.06225 3.70336 8.06225C1.65805 8.06225 0 6.40419 0 4.35888C0 2.31357 1.65805 0.655518 3.70336 0.655518ZM3.70334 3.12443C3.02157 3.12443 2.46889 3.67712 2.46889 4.35889C2.46889 5.04066 3.02157 5.59334 3.70334 5.59334C4.38511 5.59334 4.9378 5.04066 4.9378 4.35889C4.9378 3.67712 4.38511 3.12443 3.70334 3.12443Z" fill="#0684CB"/>
</svg>
