<svg width="742" height="12" viewBox="0 0 742 12" fill="none" xmlns="http://www.w3.org/2000/svg">
<path d="M0.666672 5.49269C0.662637 8.43821 3.04718 10.8293 5.99269 10.8333C8.93821 10.8374 11.3293 8.45282 11.3333 5.50731C11.3374 2.56179 8.95282 0.170707 6.00731 0.166672C3.06179 0.162637 0.670707 2.54718 0.666672 5.49269ZM730.667 6.49269C730.663 9.43821 733.047 11.8293 735.993 11.8333C738.938 11.8374 741.329 9.45282 741.333 6.50731C741.337 3.56179 738.953 1.17071 736.007 1.16667C733.062 1.16264 730.671 3.54718 730.667 6.49269ZM5.99863 6.5L735.999 7.5L736.001 5.5L6.00137 4.5L5.99863 6.5Z" fill="black"/>
</svg>
