<svg width="200" height="130" viewBox="0 0 200 130" fill="none" xmlns="http://www.w3.org/2000/svg">
<g clip-path="url(#clip0_419_759)">
<path d="M182.421 129.452L176.709 112.214C176.709 112.214 182.992 118.497 182.992 123.652L181.864 111.73C181.864 111.73 185.086 116.08 184.764 122.686C184.442 129.291 182.421 129.452 182.421 129.452Z" fill="#E6E6E6"/>
<path d="M59.7522 113.756L54.1772 96.9326C54.1772 96.9326 60.3093 103.065 60.3093 108.096L59.2087 96.4609C59.2087 96.4609 62.3533 100.706 62.0388 107.153C61.7244 113.599 59.7522 113.756 59.7522 113.756Z" fill="#E6E6E6"/>
<path d="M146.766 121.522C146.776 132.589 124.826 129.185 97.9537 129.208C71.0817 129.231 49.4637 132.673 49.4541 121.606C49.4446 110.539 71.3866 108.113 98.2585 108.09C125.131 108.067 146.757 110.455 146.766 121.522Z" fill="#E6E6E6"/>
<path d="M200 129.199H0V129.706H200V129.199Z" fill="#3F3D56"/>
<path d="M127.933 106.574H124.42L122.748 93.0234H127.933V106.574Z" fill="#A0616A"/>
<path d="M121.52 105.57H128.686V109.836H117.645V109.446C117.645 108.418 118.053 107.432 118.78 106.705C119.507 105.979 120.492 105.57 121.52 105.57Z" fill="#2F2E41"/>
<path d="M153.756 126.574H150.243L148.571 113.023H153.756V126.574Z" fill="#A0616A"/>
<path d="M147.343 125.57H154.509V129.836H143.468V129.446C143.468 128.418 143.876 127.432 144.603 126.705C145.33 125.979 146.315 125.57 147.343 125.57Z" fill="#2F2E41"/>
<path d="M169.961 86.3202C170.204 86.0256 170.379 85.6814 170.475 85.3117C170.57 84.942 170.583 84.5559 170.513 84.1805C170.444 83.8052 170.292 83.4497 170.07 83.1392C169.848 82.8286 169.56 82.5706 169.228 82.3832L161.068 49.1445L155.851 51.3892L165.556 83.5282C165.278 84.1079 165.223 84.7693 165.4 85.3872C165.578 86.0051 165.975 86.5364 166.518 86.8806C167.061 87.2247 167.712 87.3577 168.346 87.2545C168.981 87.1512 169.555 86.8188 169.961 86.3202Z" fill="#A0616A"/>
<path d="M163.597 19.1436C163.306 18.8392 162.951 18.6023 162.559 18.4497C162.166 18.2971 161.745 18.2324 161.324 18.2602C160.904 18.288 160.495 18.4076 160.126 18.6107C159.757 18.8137 159.437 19.0952 159.188 19.4354L146.559 20.8853L148.48 25.7565L159.966 23.6069C160.565 23.9866 161.282 24.1333 161.982 24.0193C162.682 23.9053 163.316 23.5384 163.764 22.9882C164.211 22.4381 164.442 21.7428 164.411 21.0342C164.38 20.3257 164.091 19.653 163.597 19.1436Z" fill="#A0616A"/>
<path d="M142.785 82.8717L148.296 124.232L155.155 122.82C155.155 122.82 154.146 92.6982 157.576 89.0669C161.005 85.4356 153.165 79.0742 153.165 79.0742L142.785 82.8717Z" fill="#2F2E41"/>
<path d="M145.063 71.4774L142.531 75.2749C142.531 75.2749 123.038 67.1738 123.038 80.085C123.038 92.9962 121.922 101.758 121.519 102.364C121.115 102.969 126.187 104.539 128.607 104.136C128.607 104.136 131.594 83.3208 131.392 82.1104C131.392 82.1104 150.515 91.4859 154.146 90.6789C157.777 89.872 158.635 87.0154 159.24 85.4015C159.846 83.7876 158.987 70.9711 158.987 70.9711L146.883 67.2773L145.063 71.4774Z" fill="#2F2E41"/>
<path d="M145.405 48.6799L144.683 47.814C144.683 47.814 136.601 29.6296 139.776 24.7228C142.951 19.8159 156.806 19.0943 157.239 19.3829C157.672 19.6715 156.205 23.4191 157.215 25.1509C157.215 25.1509 146.482 27.4778 145.761 27.7664C145.039 28.0551 151.322 38.7218 151.322 38.7218L150.6 45.2162L145.405 48.6799Z" fill="#CCCCCC"/>
<path d="M159.548 39.729C159.548 39.729 152.044 40.5949 151.755 40.5949C151.466 40.5949 151.322 38.7188 151.322 38.7188L144.683 47.8109C144.683 47.8109 141.413 74.1884 142.278 73.7554C143.144 73.3225 159.115 75.809 159.26 74.6545C159.404 73.4999 159.115 67.7271 159.548 67.4385C159.981 67.1498 167.053 49.2541 167.053 49.2541C167.053 49.2541 166.331 45.5018 163.878 44.2029C161.424 42.904 159.548 39.729 159.548 39.729Z" fill="#CCCCCC"/>
<path d="M164.744 46.8008L167.053 49.2542C167.053 49.2542 170.484 77.4466 168.607 78.3125C166.731 79.1784 163.038 79.072 163.038 79.072L159.404 65.7067L164.744 46.8008Z" fill="#CCCCCC"/>
<path d="M152.337 37.9456C156.005 37.9456 158.979 34.9716 158.979 31.3029C158.979 27.6342 156.005 24.6602 152.337 24.6602C148.668 24.6602 145.694 27.6342 145.694 31.3029C145.694 34.9716 148.668 37.9456 152.337 37.9456Z" fill="#A0616A"/>
<path d="M150.778 32.3394C150.688 30.9611 148.949 30.9139 147.568 30.9008C146.187 30.8878 144.535 30.9371 143.754 29.7982C143.237 29.0455 143.336 28.0006 143.763 27.1937C144.19 26.3867 144.891 25.7661 145.582 25.169C147.364 23.6275 149.202 22.0983 151.342 21.1116C153.482 20.125 155.99 19.7263 158.21 20.5183C160.936 21.4913 164.622 26.4996 164.94 29.377C165.259 32.2545 164.109 35.1878 162.17 37.338C160.232 39.4882 155.795 38.6207 153.003 39.3856C154.701 36.9832 153.582 32.6178 150.862 31.496L150.778 32.3394Z" fill="#2F2E41"/>
<path d="M91.5751 118.264C100.382 118.264 107.522 111.125 107.522 102.318C107.522 93.5107 100.382 86.3711 91.5751 86.3711C82.768 86.3711 75.6284 93.5107 75.6284 102.318C75.6284 111.125 82.768 118.264 91.5751 118.264Z" fill="#0684CB"/>
<path d="M80.9258 85.2365C78.7157 85.2367 76.5529 84.5962 74.6993 83.3927C72.8456 82.1892 71.3805 80.4741 70.4814 78.4552L45.177 21.47C44.3388 19.5823 43.8955 17.5432 43.8743 15.4779C43.8532 13.4127 44.2546 11.3649 45.054 9.46046C45.8533 7.55604 47.0337 5.83521 48.5226 4.40375C50.0114 2.9723 51.7773 1.86046 53.7117 1.13658C55.6461 0.412692 57.7081 0.0920573 59.7709 0.194383C61.8337 0.296708 63.8539 0.819831 65.7071 1.7316C67.5603 2.64336 69.2075 3.92451 70.5474 5.49628C71.8873 7.06805 72.8916 8.89725 73.4986 10.8714L91.822 70.4694C92.3466 72.1753 92.4638 73.9805 92.1641 75.7399C91.8645 77.4993 91.1564 79.1639 90.0968 80.6C89.0371 82.0361 87.6554 83.2037 86.0627 84.0089C84.4699 84.8142 82.7105 85.2346 80.9258 85.2365Z" fill="#0684CB"/>
</g>
<defs>
<clipPath id="clip0_419_759">
<rect width="200" height="129.673" fill="white" transform="translate(0 0.164062)"/>
</clipPath>
</defs>
</svg>
