<svg width="35" height="36" viewBox="0 0 35 36" fill="none" xmlns="http://www.w3.org/2000/svg">
<g clip-path="url(#clip0_5_19)">
<path d="M17.5 33.3125C13.4389 33.3125 9.54408 31.6992 6.67243 28.8276C3.80078 25.9559 2.1875 22.0611 2.1875 18C2.1875 13.9389 3.80078 10.0441 6.67243 7.17243C9.54408 4.30078 13.4389 2.6875 17.5 2.6875C21.5611 2.6875 25.4559 4.30078 28.3276 7.17243C31.1992 10.0441 32.8125 13.9389 32.8125 18C32.8125 22.0611 31.1992 25.9559 28.3276 28.8276C25.4559 31.6992 21.5611 33.3125 17.5 33.3125ZM17.5 35.5C22.1413 35.5 26.5925 33.6563 29.8744 30.3744C33.1563 27.0925 35 22.6413 35 18C35 13.3587 33.1563 8.90752 29.8744 5.62563C26.5925 2.34375 22.1413 0.5 17.5 0.5C12.8587 0.5 8.40752 2.34375 5.12563 5.62563C1.84375 8.90752 0 13.3587 0 18C0 22.6413 1.84375 27.0925 5.12563 30.3744C8.40752 33.6563 12.8587 35.5 17.5 35.5Z" fill="#0684CB"/>
<path d="M24.0625 18C24.0625 19.7405 23.3711 21.4097 22.1404 22.6404C20.9097 23.8711 19.2405 24.5625 17.5 24.5625C15.7595 24.5625 14.0903 23.8711 12.8596 22.6404C11.6289 21.4097 10.9375 19.7405 10.9375 18C10.9375 16.2595 11.6289 14.5903 12.8596 13.3596C14.0903 12.1289 15.7595 11.4375 17.5 11.4375C19.2405 11.4375 20.9097 12.1289 22.1404 13.3596C23.3711 14.5903 24.0625 16.2595 24.0625 18Z" fill="#0684CB"/>
</g>
<defs>
<clipPath id="clip0_5_19">
<rect width="35" height="35" fill="white" transform="translate(0 0.5)"/>
</clipPath>
</defs>
</svg>
