<svg width="30" height="28" viewBox="0 0 30 28" fill="none" xmlns="http://www.w3.org/2000/svg">
<path fill-rule="evenodd" clip-rule="evenodd" d="M30 13.9999C30 14.4972 29.8025 14.974 29.4509 15.3256C29.0993 15.6772 28.6224 15.8747 28.1252 15.8747H6.40389L14.4542 23.9213C14.6285 24.0956 14.7668 24.3026 14.8612 24.5303C14.9555 24.7581 15.004 25.0022 15.004 25.2487C15.004 25.4952 14.9555 25.7393 14.8612 25.967C14.7668 26.1948 14.6285 26.4017 14.4542 26.576C14.2799 26.7503 14.073 26.8886 13.8452 26.9829C13.6175 27.0773 13.3734 27.1258 13.1269 27.1258C12.8804 27.1258 12.6363 27.0773 12.4085 26.9829C12.1808 26.8886 11.9738 26.7503 11.7995 26.576L0.55079 15.3273C0.376197 15.1531 0.237677 14.9462 0.143163 14.7185C0.0486494 14.4907 0 14.2465 0 13.9999C0 13.7533 0.0486494 13.5091 0.143163 13.2814C0.237677 13.0536 0.376197 12.8467 0.55079 12.6726L11.7995 1.42383C12.1516 1.0718 12.629 0.874023 13.1269 0.874023C13.6247 0.874023 14.1022 1.0718 14.4542 1.42383C14.8063 1.77587 15.004 2.25333 15.004 2.75118C15.004 3.24904 14.8063 3.7265 14.4542 4.07854L6.40389 12.1251H28.1252C28.6224 12.1251 29.0993 12.3227 29.4509 12.6742C29.8025 13.0258 30 13.5027 30 13.9999Z" fill="#313131"/>
</svg>
